<svg xmlns="http://www.w3.org/2000/svg" viewBox="0 0 1200 600" fill="none" role="img"
  aria-label="Image unavailable placeholder">
  <defs>
    <linearGradient id="bg" x1="0" y1="0" x2="1200" y2="600" gradientUnits="userSpaceOnUse">
      <stop offset="0%" stop-color="oklch(0.97 0.01 260)" />
      <stop offset="100%" stop-color="oklch(0.92 0.02 250)" />
    </linearGradient>

    <linearGradient id="card" x1="300" y1="120" x2="900" y2="480" gradientUnits="userSpaceOnUse">
      <stop offset="0%" stop-color="white" stop-opacity="0.95" />
      <stop offset="100%" stop-color="oklch(0.98 0.005 260)" stop-opacity="0.9" />
    </linearGradient>

    <radialGradient id="glow1" cx="0" cy="0" r="1" gradientUnits="userSpaceOnUse"
      gradientTransform="translate(240 140) rotate(20) scale(280 220)">
      <stop stop-color="oklch(0.82 0.06 280)" stop-opacity="0.35" />
      <stop offset="1" stop-color="oklch(0.82 0.06 280)" stop-opacity="0" />
    </radialGradient>

    <radialGradient id="glow2" cx="0" cy="0" r="1" gradientUnits="userSpaceOnUse"
      gradientTransform="translate(980 500) rotate(-10) scale(320 240)">
      <stop stop-color="oklch(0.84 0.05 220)" stop-opacity="0.32" />
      <stop offset="1" stop-color="oklch(0.84 0.05 220)" stop-opacity="0" />
    </radialGradient>

    <filter id="shadow" x="220" y="60" width="760" height="500" filterUnits="userSpaceOnUse">
      <feDropShadow dx="0" dy="18" stdDeviation="30" flood-color="oklch(0.35 0.03 260 / 0.14)" />
    </filter>
  </defs>

  <rect width="1200" height="600" fill="url(#bg)" />
  <rect width="1200" height="600" fill="url(#glow1)" />
  <rect width="1200" height="600" fill="url(#glow2)" />

  <g filter="url(#shadow)">
    <rect x="300" y="120" width="600" height="360" rx="28" fill="url(#card)" />
    <rect x="300.5" y="120.5" width="599" height="359" rx="27.5" stroke="oklch(0.84 0.01 260)"
      stroke-opacity="0.8" />
  </g>

  <rect x="340" y="160" width="520" height="220" rx="20" fill="oklch(0.94 0.01 255)" />
  <rect x="340.5" y="160.5" width="519" height="219" rx="19.5" stroke="oklch(0.86 0.015 255)" />

  <path
    d="M390 340L500 245C512 235 529 236 539 248L605 327C615 339 633 340 644 329L713 262C724 251 742 250 754 260L810 310V340H390Z"
    fill="oklch(0.82 0.04 230)" fill-opacity="0.9" />
  <circle cx="465" cy="225" r="28" fill="oklch(0.88 0.05 95)" />

  <g opacity="0.9">
    <circle cx="600" cy="290" r="54" fill="white" />
    <circle cx="600" cy="290" r="53" stroke="oklch(0.84 0.01 260)" />
    <path d="M572 318L628 262M628 318L572 262" stroke="oklch(0.62 0.03 260)" stroke-width="16"
      stroke-linecap="round" />
  </g>

  <rect x="430" y="414" width="340" height="20" rx="10" fill="oklch(0.72 0.02 260)" />
  <rect x="500" y="448" width="200" height="14" rx="7" fill="oklch(0.8 0.01 260)" />

  <circle cx="180" cy="470" r="6" fill="oklch(0.82 0.04 280)" opacity="0.45" />
  <circle cx="1030" cy="130" r="8" fill="oklch(0.84 0.05 220)" opacity="0.4" />
  <circle cx="1080" cy="190" r="4" fill="oklch(0.8 0.03 260)" opacity="0.35" />
</svg>
